<?xml version="1.0" standalone="no"?>
<!DOCTYPE svg PUBLIC "-//W3C//DTD SVG 20010904//EN"
 "http://www.w3.org/TR/2001/REC-SVG-20010904/DTD/svg10.dtd">
<svg version="1.0" xmlns="http://www.w3.org/2000/svg"
 width="402.000000pt" height="402.000000pt" viewBox="0 0 402.000000 402.000000"
 preserveAspectRatio="xMidYMid meet">
<metadata>
Created by potrace 1.14, written by Peter Selinger 2001-2017
</metadata>
<g transform="translate(0.000000,402.000000) scale(0.100000,-0.100000)"
fill="#000000" stroke="none">
<path d="M1722 3994 c-63 -31 -102 -75 -146 -162 -80 -160 -118 -332 -117
-527 1 -326 105 -622 362 -1036 75 -121 79 -130 66 -154 l-13 -26 -49 73 c-74
109 -261 292 -380 371 -142 94 -184 110 -281 113 l-81 2 -89 66 c-102 76 -208
133 -309 167 -60 20 -89 24 -200 24 -115 0 -135 -3 -171 -22 -83 -44 -114
-106 -114 -225 0 -187 79 -395 215 -565 113 -142 254 -255 500 -403 73 -44
142 -90 153 -102 11 -13 40 -45 64 -72 l43 -49 -74 57 c-224 172 -620 276
-774 202 -107 -52 -115 -189 -21 -374 58 -116 130 -209 224 -290 121 -105 152
-117 290 -117 93 1 127 5 180 23 72 26 198 95 277 154 29 21 55 38 60 38 14 0
-62 -73 -106 -101 -51 -33 -46 -35 30 -13 76 23 143 58 191 102 40 36 98 139
98 175 0 15 10 17 71 17 l72 0 -6 -67 c-4 -38 -7 -137 -7 -220 l0 -153 -46 35
c-54 41 -73 45 -49 9 9 -14 52 -131 95 -260 43 -129 91 -256 106 -281 55 -95
162 -187 271 -234 58 -25 245 -69 293 -69 34 0 34 1 -20 23 -71 29 -128 69
-210 146 l-65 60 84 -54 c288 -187 600 -289 832 -271 157 12 256 59 392 186
196 183 347 428 423 685 33 114 38 276 11 339 -64 145 -199 191 -444 152 -404
-64 -821 -300 -1088 -618 -41 -48 -86 -107 -100 -132 -41 -69 -40 -55 1 27
101 201 210 316 529 558 417 316 587 480 755 729 111 166 200 370 242 555 25
116 36 387 18 477 -26 133 -98 226 -209 270 -79 31 -308 31 -423 0 -110 -30
-221 -76 -313 -130 -44 -26 -82 -46 -84 -45 -1 1 -21 55 -43 120 -81 245 -206
459 -351 607 -198 201 -418 283 -565 210z m-464 -2592 c49 -71 41 -68 -28 10
-43 49 -48 58 -23 40 18 -13 41 -35 51 -50z"/>
</g>
</svg>
